<?xml version="1.0" encoding="utf-8"?>
<!-- Generator: Adobe Illustrator 15.0.0, SVG Export Plug-In . SVG Version: 6.00 Build 0)  -->
<!DOCTYPE svg PUBLIC "-//W3C//DTD SVG 1.1//EN" "http://www.w3.org/Graphics/SVG/1.1/DTD/svg11.dtd">
<svg version="1.1" id="Layer_1" xmlns="http://www.w3.org/2000/svg" xmlns:xlink="http://www.w3.org/1999/xlink" x="0px" y="0px"
	 width="612px" height="792px" viewBox="0 0 612 792" enable-background="new 0 0 612 792" xml:space="preserve">
<path d="M2079,506.5c0,6.903-5.597,12.5-12.5,12.5l0,0c-6.903,0-12.5-5.597-12.5-12.5v-52c0-6.903,5.597-12.5,12.5-12.5l0,0
	c6.903,0,12.5,5.597,12.5,12.5V506.5z"/>
<path d="M2046,526.5c0,6.903-5.597,12.5-12.5,12.5l0,0c-6.903,0-12.5-5.597-12.5-12.5v-52c0-6.903,5.597-12.5,12.5-12.5l0,0
	c6.903,0,12.5,5.597,12.5,12.5V526.5z"/>
<path d="M2013,546.5c0,6.903-5.597,12.5-12.5,12.5l0,0c-6.903,0-12.5-5.597-12.5-12.5v-52c0-6.903,5.597-12.5,12.5-12.5l0,0
	c6.903,0,12.5,5.597,12.5,12.5V546.5z"/>
<path d="M1984,570.5c0,6.903-5.597,12.5-12.5,12.5l0,0c-6.903,0-12.5-5.597-12.5-12.5v-52c0-6.903,5.597-12.5,12.5-12.5l0,0
	c6.903,0,12.5,5.597,12.5,12.5V570.5z"/>
<path d="M2109,526.5c0,6.903-5.597,12.5-12.5,12.5l0,0c-6.903,0-12.5-5.597-12.5-12.5v-52c0-6.903,5.597-12.5,12.5-12.5l0,0
	c6.903,0,12.5,5.597,12.5,12.5V526.5z"/>
<path d="M2139,546.5c0,6.903-5.597,12.5-12.5,12.5l0,0c-6.903,0-12.5-5.597-12.5-12.5v-52c0-6.903,5.597-12.5,12.5-12.5l0,0
	c6.903,0,12.5,5.597,12.5,12.5V546.5z"/>
<path d="M2169,566.5c0,6.903-5.597,12.5-12.5,12.5l0,0c-6.903,0-12.5-5.597-12.5-12.5v-52c0-6.903,5.597-12.5,12.5-12.5l0,0
	c6.903,0,12.5,5.597,12.5,12.5V566.5z"/>
<polygon points="933.643,591.078 888.921,580.308 882.334,503.666 944.413,546.356 "/>
<polygon points="1042.646,596.942 1032.692,552.031 1098.664,512.471 1087.557,586.988 "/>
<polyline fill="none" stroke="#000000" stroke-width="10.8" stroke-linecap="round" stroke-miterlimit="10" points="369,316 
	482,289 524,434 "/>
<circle cx="318.014" cy="291.123" r="128.082"/>
<circle fill="#C9DB2B" cx="339" cy="272" r="77"/>
<circle cx="350.334" cy="269.333" r="51"/>
<circle fill="#DDE2C5" cx="309.999" cy="245.333" r="19.667"/>
<polyline fill="none" stroke="#000000" stroke-width="10.8" stroke-linecap="round" stroke-miterlimit="10" points="205,316 
	139,274 97,419 "/>
<polyline fill="none" stroke="#000000" stroke-width="10.8" stroke-linecap="round" stroke-miterlimit="10" points="275,345 
	171,382 163,447 "/>
<polyline fill="none" stroke="#000000" stroke-width="10.8" stroke-linecap="round" stroke-miterlimit="10" points="
	403.831,351.809 437.718,397.468 445.267,449.072 "/>
<rect x="290" y="376" transform="matrix(0.8429 -0.538 0.538 0.8429 -166.08 232.1152)" width="49" height="49.001"/>
<rect x="326" y="375" transform="matrix(0.446 -0.895 0.895 0.446 -163.3922 535.0179)" width="49.001" height="49"/>
<polyline fill="none" stroke="#000000" stroke-width="10.8" stroke-linecap="round" stroke-miterlimit="10" points="369,638 
	486.081,640.578 509,770 "/>
<circle cx="318.014" cy="613.123" r="128.082"/>
<circle fill="#C9DB2B" cx="339" cy="594" r="77"/>
<circle cx="344.334" cy="591.334" r="51"/>
<circle fill="#DDE2C5" cx="303.999" cy="567.333" r="19.667"/>
<polyline fill="none" stroke="#000000" stroke-width="10.8" stroke-linecap="round" stroke-miterlimit="10" points="205,638 
	143,626 101,771 "/>
<polyline fill="none" stroke="#000000" stroke-width="10.8" stroke-linecap="round" stroke-miterlimit="10" points="275,667 
	191,711 183,776 "/>
<polyline fill="none" stroke="#000000" stroke-width="10.8" stroke-linecap="round" stroke-miterlimit="10" points="
	403.831,673.809 421.451,722.396 429,774 "/>
<rect x="290" y="698" transform="matrix(0.8429 -0.538 0.538 0.8429 -339.3237 282.6919)" width="49" height="49.001"/>
<rect x="326" y="697" transform="matrix(0.446 -0.895 0.895 0.446 -451.5887 713.3977)" width="49.001" height="49"/>
<polyline fill="none" stroke="#000000" stroke-width="10.8" stroke-linecap="round" stroke-miterlimit="10" points="369,1032.479 
	479.415,1052.912 502.334,1182.334 "/>
<circle cx="318.014" cy="1007.603" r="128.082"/>
<circle fill="#C9DB2B" cx="339" cy="988.479" r="77"/>
<circle cx="344.334" cy="985.813" r="51"/>
<circle fill="#DDE2C5" cx="303.999" cy="961.812" r="19.667"/>
<polyline fill="none" stroke="#000000" stroke-width="10.8" stroke-linecap="round" stroke-miterlimit="10" points="205,1032.479 
	157.667,1032.001 115.667,1177.001 "/>
<polyline fill="none" stroke="#000000" stroke-width="10.8" stroke-linecap="round" stroke-miterlimit="10" points="275,1061.479 
	188.333,1114.001 180.333,1179.001 "/>
<polyline fill="none" stroke="#000000" stroke-width="10.8" stroke-linecap="round" stroke-miterlimit="10" points="
	403.831,1068.288 432.334,1126.334 434.334,1176.334 "/>
<rect x="290" y="1092.479" transform="matrix(0.8429 -0.538 0.538 0.8429 -551.5631 344.653)" width="49" height="49.001"/>
<rect x="326" y="1091.479" transform="matrix(0.446 -0.895 0.895 0.446 -804.6559 931.9294)" width="49.001" height="49"/>
<path fill="none" stroke="#000000" stroke-width="10.8" stroke-linecap="round" stroke-miterlimit="10" d="M75-42c0,0,10,22,48,22
	s52-21,52-21"/>
<path fill="none" stroke="#000000" stroke-width="10.8" stroke-linecap="round" stroke-miterlimit="10" d="M279-42c0,0,10,22,48,22
	s52-21,52-21"/>
<path fill="none" stroke="#000000" stroke-width="10.8" stroke-linecap="round" stroke-miterlimit="10" d="M481-41c0,0-14,21-52,21
	s-48-22-48-22l-9.75-103.5L483-42c0,0,10,22,48,22s52-21,52-21"/>
<path fill="none" stroke="#000000" stroke-width="10.8" stroke-linecap="round" stroke-miterlimit="10" d="M353-150L177-42
	c0,0,10,22,48,22s52-21,52-21l78-110L74-46"/>
<line fill="none" stroke="#000000" stroke-width="10.8" stroke-linecap="round" stroke-miterlimit="10" x1="584" y1="-45" x2="369.5" y2="-157.5"/>
<g>
	<path d="M339,1065.479c-27.655,0-51.894-14.587-65.472-36.479c11.984,23.647,37.688,40,67.472,40c41.237,0,74.667-31.34,74.667-70
		c0-0.873-0.036-1.738-0.07-2.604C411.633,1035.203,378.853,1065.479,339,1065.479z"/>
	<path d="M341,929.001c40.306,0,73.134,29.944,74.597,67.396c0.266-2.604,0.403-5.245,0.403-7.918c0-42.525-34.474-77-77-77
		c-42.526,0-77,34.475-77,77c0,14.871,4.227,28.749,11.528,40.521c-4.608-9.094-7.195-19.263-7.195-30
		C266.333,960.341,299.763,929.001,341,929.001z"/>
</g>
<g>
	<circle cx="850" cy="243" r="81"/>
	<circle cx="1304" cy="243" r="81"/>
	<circle cx="954" cy="239" r="110"/>
	<circle cx="1198" cy="239" r="110"/>
	<circle cx="1074" cy="239" r="158"/>
</g>
<circle fill="#C0D72F" cx="999.5" cy="199.5" r="53.5"/>
<circle fill="#272823" cx="999.5" cy="199.5" r="35.5"/>
<circle fill="#C0D72F" cx="1141.5" cy="199.5" r="53.5"/>
<circle fill="#272823" cx="1141.5" cy="199.5" r="35.5"/>
<circle opacity="0.75" fill="#E9EADA" cx="971.75" cy="184.75" r="11.25"/>
<circle opacity="0.75" fill="#E9EADA" cx="1113.25" cy="184.75" r="11.25"/>
<path fill="none" stroke="#C0D72F" stroke-width="8.2008" stroke-miterlimit="10" d="M1073,295.667c0,0,33.334-3.333,37.334-3.333"
	/>
<rect x="1078.635" y="293.316" transform="matrix(0.7071 -0.7071 0.7071 0.7071 106.4214 853.6046)" fill="#C0D72F" width="10.036" height="10.035"/>
<rect x="1096.052" y="291.983" transform="matrix(0.5839 -0.8118 0.8118 0.5839 217.0015 1017.4089)" fill="#C0D72F" width="10.036" height="10.035"/>
<path d="M1108.551,700.572c0,66.271-53.723,119.994-119.994,119.994l0,0c-66.271,0-119.994-53.724-119.994-119.994v-58.497
	c0-66.271,53.724-119.994,119.994-119.994l0,0c66.271,0,119.994,53.724,119.994,119.994V700.572z"/>
<path d="M1018.334,847.667c0,4.418-3.582,8-8,8l0,0c-4.418,0-8-3.582-8-8v-44c0-4.418,3.582-8,8-8l0,0c4.418,0,8,3.582,8,8V847.667z
	"/>
<path d="M1133.77,660.713c4.1-1.646,8.759,0.344,10.404,4.443l0,0c1.646,4.1-0.343,8.759-4.443,10.404l-40.832,16.395
	c-4.1,1.646-8.758-0.344-10.404-4.443l0,0c-1.646-4.101,0.344-8.759,4.443-10.405L1133.77,660.713z"/>
<path d="M885.705,683.928c2.966,3.273,2.719,8.333-0.555,11.3l0,0c-3.273,2.968-8.333,2.72-11.3-0.555l-29.552-32.6
	c-2.967-3.272-2.719-8.332,0.555-11.3l0,0c3.273-2.968,8.333-2.719,11.3,0.555L885.705,683.928z"/>
<path d="M961.668,847.667c0,4.418-3.582,8-8,8l0,0c-4.418,0-8-3.582-8-8v-44c0-4.418,3.582-8,8-8l0,0c4.418,0,8,3.582,8,8V847.667z"
	/>
<circle fill="#C0D72F" cx="990.5" cy="659.501" r="105.833"/>
<circle cx="947" cy="627" r="13"/>
<circle cx="1042" cy="627" r="13"/>
<path fill="none" stroke="#000000" stroke-width="6.7608" stroke-linecap="round" stroke-miterlimit="10" d="M953.45,701.145
	c0,0,36.67,32.051,77.814-2.125"/>
<circle cx="1591" cy="733" r="108"/>
<circle cx="1714" cy="733" r="108"/>
<circle cx="1837" cy="733" r="108"/>
<circle cx="1960" cy="733" r="108"/>
<circle cx="1487" cy="730" r="108"/>
<line fill="none" stroke="#000000" stroke-width="10.8" stroke-linecap="round" stroke-miterlimit="10" x1="1434" y1="864" x2="1435" y2="816"/>
<line fill="none" stroke="#000000" stroke-width="10.8" stroke-linecap="round" stroke-miterlimit="10" x1="1496" y1="864" x2="1497" y2="816"/>
<line fill="none" stroke="#000000" stroke-width="10.8" stroke-linecap="round" stroke-miterlimit="10" x1="1558" y1="864" x2="1559" y2="816"/>
<line fill="none" stroke="#000000" stroke-width="10.8" stroke-linecap="round" stroke-miterlimit="10" x1="1620" y1="864" x2="1621" y2="816"/>
<line fill="none" stroke="#000000" stroke-width="10.8" stroke-linecap="round" stroke-miterlimit="10" x1="1682" y1="864" x2="1683" y2="816"/>
<line fill="none" stroke="#000000" stroke-width="10.8" stroke-linecap="round" stroke-miterlimit="10" x1="1744" y1="864" x2="1745" y2="816"/>
<line fill="none" stroke="#000000" stroke-width="10.8" stroke-linecap="round" stroke-miterlimit="10" x1="1806" y1="864" x2="1807" y2="816"/>
<line fill="none" stroke="#000000" stroke-width="10.8" stroke-linecap="round" stroke-miterlimit="10" x1="1868" y1="864" x2="1869" y2="816"/>
<line fill="none" stroke="#000000" stroke-width="10.8" stroke-linecap="round" stroke-miterlimit="10" x1="1930" y1="864" x2="1931" y2="816"/>
<line fill="none" stroke="#000000" stroke-width="10.8" stroke-linecap="round" stroke-miterlimit="10" x1="1992" y1="864" x2="1993" y2="816"/>
<circle cx="2074.5" cy="638.5" r="134.5"/>
<circle fill="#4DC6E0" cx="2077.5" cy="620.5" r="101.5"/>
<circle cx="2095.5" cy="638.497" r="47.5"/>
<circle opacity="0.75" fill="#F5F5F5" cx="2047.5" cy="620.497" r="13.5"/>
<path d="M1452.033,681.826c0,4.556-3.693,8.249-8.25,8.249l0,0c-4.556,0-8.249-3.693-8.249-8.249V581.33
	c0-4.556,3.693-8.249,8.249-8.249l0,0c4.557,0,8.25,3.693,8.25,8.249V681.826z"/>
<path d="M1503.03,663.827c0,4.556-3.693,8.249-8.25,8.249l0,0c-4.556,0-8.249-3.693-8.249-8.249V563.331
	c0-4.556,3.693-8.249,8.249-8.249l0,0c4.557,0,8.25,3.693,8.25,8.249V663.827z"/>
<path d="M1554.027,681.826c0,4.556-3.693,8.249-8.25,8.249l0,0c-4.556,0-8.249-3.693-8.249-8.249V581.33
	c0-4.556,3.693-8.249,8.249-8.249l0,0c4.557,0,8.25,3.693,8.25,8.249V681.826z"/>
<path d="M1605.024,653.327c0,4.556-3.693,8.249-8.25,8.249l0,0c-4.556,0-8.249-3.693-8.249-8.249V552.831
	c0-4.556,3.693-8.249,8.249-8.249l0,0c4.557,0,8.25,3.693,8.25,8.249V653.327z"/>
<path d="M1656.021,681.826c0,4.556-3.693,8.249-8.25,8.249l0,0c-4.556,0-8.249-3.693-8.249-8.249V581.33
	c0-4.556,3.693-8.249,8.249-8.249l0,0c4.557,0,8.25,3.693,8.25,8.249V681.826z"/>
<path d="M1707.019,653.327c0,4.556-3.693,8.249-8.25,8.249l0,0c-4.556,0-8.249-3.693-8.249-8.249V552.831
	c0-4.556,3.693-8.249,8.249-8.249l0,0c4.557,0,8.25,3.693,8.25,8.249V653.327z"/>
<path d="M1758.016,681.826c0,4.556-3.693,8.249-8.25,8.249l0,0c-4.556,0-8.249-3.693-8.249-8.249V581.33
	c0-4.556,3.693-8.249,8.249-8.249l0,0c4.557,0,8.25,3.693,8.25,8.249V681.826z"/>
<path d="M1809.013,681.826c0,4.556-3.693,8.249-8.25,8.249l0,0c-4.556,0-8.249-3.693-8.249-8.249V581.33
	c0-4.556,3.693-8.249,8.249-8.249l0,0c4.557,0,8.25,3.693,8.25,8.249V681.826z"/>
<path d="M1849.51,653.327c0,4.556-3.693,8.249-8.25,8.249l0,0c-4.556,0-8.249-3.693-8.249-8.249V552.831
	c0-4.556,3.693-8.249,8.249-8.249l0,0c4.557,0,8.25,3.693,8.25,8.249V653.327z"/>
<path d="M1891.508,681.826c0,4.556-3.693,8.249-8.25,8.249l0,0c-4.556,0-8.249-3.693-8.249-8.249V581.33
	c0-4.556,3.693-8.249,8.249-8.249l0,0c4.557,0,8.25,3.693,8.25,8.249V681.826z"/>
<path d="M1932.005,681.826c0,4.556-3.693,8.249-8.25,8.249l0,0c-4.556,0-8.249-3.693-8.249-8.249V581.33
	c0-4.556,3.693-8.249,8.249-8.249l0,0c4.557,0,8.25,3.693,8.25,8.249V681.826z"/>
<path d="M2205.01-91.73c0,176.473-143.06,319.532-319.532,319.532l0,0c-176.473,0-319.532-143.06-319.532-319.532v-24.001
	c0-176.473,143.06-319.532,319.532-319.532l0,0c176.473,0,319.532,143.06,319.532,319.532V-91.73z"/>
<path d="M1636.184,23.648c-4.155,4.431-11.116,4.655-15.548,0.5L1330.315-248.1c-4.432-4.155-4.655-11.117-0.499-15.548l0,0
	c4.155-4.432,11.116-4.655,15.548-0.5L1635.685,8.1C1640.116,12.255,1640.34,19.216,1636.184,23.648L1636.184,23.648z"/>
<path d="M1331.736-246.96c-5.078-3.334-6.491-10.154-3.157-15.232l190.718-172.019c3.334-5.079,10.154-6.492,15.232-3.157l0,0
	c5.078,3.334,6.491,10.154,3.157,15.232l-190.718,172.019C1343.635-245.039,1336.814-243.625,1331.736-246.96L1331.736-246.96z"/>
<path d="M2131.75,23.648c4.155,4.431,11.116,4.655,15.548,0.5l290.32-272.247c4.432-4.155,4.655-11.117,0.499-15.548l0,0
	c-4.155-4.432-11.116-4.655-15.548-0.5L2132.249,8.1C2127.817,12.255,2127.594,19.216,2131.75,23.648L2131.75,23.648z"/>
<path d="M2436.197-246.96c5.078-3.334,6.491-10.154,3.157-15.232l-190.718-172.019c-3.334-5.079-10.154-6.492-15.232-3.157l0,0
	c-5.078,3.334-6.491,10.154-3.157,15.232l190.718,172.019C2424.299-245.039,2431.119-243.625,2436.197-246.96L2436.197-246.96z"/>
<path d="M1907.75-66.352c4.155,4.431,11.116,4.655,15.548,0.5l290.32-272.247c4.432-4.155,4.655-11.117,0.499-15.548l0,0
	c-4.155-4.432-11.116-4.655-15.548-0.5L1908.249-81.9C1903.817-77.745,1903.594-70.784,1907.75-66.352L1907.75-66.352z"/>
<path d="M2212.197-336.96c5.078-3.334,6.491-10.154,3.157-15.232L2141-433c-3.334-5.079-10.154-6.492-15.232-3.157l0,0
	c-5.078,3.334-6.491,10.154-3.157,15.232l74.354,80.808C2200.299-335.039,2207.119-333.625,2212.197-336.96L2212.197-336.96z"/>
<path d="M1882.184-65.352c-4.155,4.431-11.116,4.655-15.548,0.5L1576.315-337.1c-4.432-4.155-4.655-11.117-0.499-15.548l0,0
	c4.155-4.432,11.116-4.655,15.548-0.5L1881.685-80.9C1886.116-76.745,1886.34-69.784,1882.184-65.352L1882.184-65.352z"/>
<path d="M1577.736-335.96c-5.078-3.334-6.491-10.154-3.157-15.232L1648.934-432c3.334-5.079,10.154-6.492,15.232-3.157l0,0
	c5.078,3.334,6.491,10.154,3.157,15.232l-74.354,80.808C1589.635-334.039,1582.814-332.625,1577.736-335.96L1577.736-335.96z"/>
<path fill="none" stroke="#C0D72F" stroke-width="6.7608" stroke-miterlimit="10" d="M1726.521-229.378
	c0,0,38.999,23.999,70.497-17.999"/>
<circle fill="#C0D72F" cx="1902.762" cy="17.36" r="159.742"/>
<circle cx="1932.76" cy="51.858" r="96.745"/>
<circle opacity="0.75" fill="#F5F5F5" cx="2013.756" cy="69.857" r="23.249"/>
<path fill="#C0D72F" d="M1730-227l1-29l23,30l10-35l24,21c0,0-6,17-28,18S1730-227,1730-227z"/>
</svg>
