<?xml version="1.0" encoding="UTF-8" standalone="no"?>
<svg
   xmlns:dc="http://purl.org/dc/elements/1.1/"
   xmlns:cc="http://creativecommons.org/ns#"
   xmlns:rdf="http://www.w3.org/1999/02/22-rdf-syntax-ns#"
   xmlns:svg="http://www.w3.org/2000/svg"
   xmlns="http://www.w3.org/2000/svg"
   version="1.1"
   id="svg2"
   viewBox="0 0 744.09448819 1052.3622047"
   height="297mm"
   width="210mm">
  <defs
     id="defs4" />
  <metadata
     id="metadata7">
    <rdf:RDF>
      <cc:Work
         rdf:about="">
        <dc:format>image/svg+xml</dc:format>
        <dc:type
           rdf:resource="http://purl.org/dc/dcmitype/StillImage" />
        <dc:title></dc:title>
      </cc:Work>
    </rdf:RDF>
  </metadata>
  <g
     id="layer1">
    <path
       transform="matrix(0.72543842,0,0,0.78184148,32.328334,65.197317)"
       d="M 65.714291,509.50506 280.08244,128.59668 502.77471,504.69914 Z"
       id="path3336"
       style="fill:#0066ff" />
    <path
       transform="matrix(1.1889015,0,0,1.2785303,-68.271738,-487.78104)"
       d="m 257.14286,549.50509 101.44868,175.71429 -202.89738,0 z"
       id="path3338"
       style="fill:#ff7f2a" />
    <path
       transform="matrix(0.34220645,0,0,0.388648,109.13949,108.65819)"
       d="M 155.75552,791.38778 370.12367,410.4794 592.81594,786.58186 Z"
       id="path3336-9"
       style="fill:#3771c8" />
    <path
       transform="matrix(0.37439003,0,0,0.49841017,142.2907,34.1883)"
       d="m 257.14286,549.50509 101.44868,175.71429 -202.89738,0 z"
       id="path3338-6"
       style="fill:#ff7f2a" />
    <rect
       y="460.75717"
       x="175.58411"
       height="182.77101"
       width="17.86619"
       id="rect3370"
       style="fill:#ff6600" />
    <rect
       y="458.47253"
       x="276.52808"
       height="139.61674"
       width="17.86619"
       id="rect3370-1"
       style="fill:#ff6600" />
    <rect
       transform="matrix(-0.00547672,-0.999985,0.9999451,-0.01047862,0,0)"
       y="172.55272"
       x="-645.53027"
       height="51.374336"
       width="18.615341"
       id="rect3370-7"
       style="fill:#ff6600" />
    <rect
       transform="matrix(-0.0047639,-0.99998865,0.99992744,-0.01204641,0,0)"
       y="282.6499"
       x="-601.6853"
       height="44.688206"
       width="18.615273"
       id="rect3370-7-5"
       style="fill:#ff6600" />
    <path
       transform="matrix(0.72543842,0,0,0.78184148,305.22669,415.69065)"
       d="M 65.714291,509.50506 280.08244,128.59668 502.77471,504.69914 Z"
       id="path3336-7"
       style="fill:#ff7f2a" />
    <path
       transform="matrix(1.1889015,0,0,1.2785303,204.62662,-137.2877)"
       d="m 257.14286,549.50509 101.44868,175.71429 -202.89738,0 z"
       id="path3338-3"
       style="fill:#3771c8" />
    <path
       transform="matrix(0.34220645,0,0,0.388648,382.03785,459.15153)"
       d="M 155.75552,791.38778 370.12367,410.4794 592.81594,786.58186 Z"
       id="path3336-9-7"
       style="fill:#ff7f2a" />
    <path
       transform="matrix(0.37439003,0,0,0.49841017,415.18906,384.68164)"
       d="m 257.14286,549.50509 101.44868,175.71429 -202.89738,0 z"
       id="path3338-6-1"
       style="fill:#3771c8" />
    <rect
       y="811.25049"
       x="558.48248"
       height="182.77101"
       width="17.86619"
       id="rect3370-4"
       style="fill:#ff6600" />
    <rect
       y="810.96582"
       x="442.85501"
       height="139.61674"
       width="17.86619"
       id="rect3370-1-4"
       style="fill:#ff6600" />
    <rect
       transform="matrix(-0.00547672,-0.999985,0.9999451,-0.01047862,0,0)"
       y="553.53058"
       x="-1000.0209"
       height="51.374336"
       width="18.615341"
       id="rect3370-7-9"
       style="fill:#ff6600" />
    <rect
       transform="matrix(-0.0047639,-0.99998865,0.99992744,-0.01204641,0,0)"
       y="447.30005"
       x="-956.16589"
       height="44.688206"
       width="18.615273"
       id="rect3370-7-5-1"
       style="fill:#ff6600" />
  </g>
</svg>
