<?xml version="1.0" encoding="utf-8"?>
<!-- Generator: Adobe Illustrator 15.0.0, SVG Export Plug-In . SVG Version: 6.00 Build 0)  -->
<!DOCTYPE svg PUBLIC "-//W3C//DTD SVG 1.1//EN" "http://www.w3.org/Graphics/SVG/1.1/DTD/svg11.dtd">
<svg version="1.1"
	 id="svg2" xmlns:svg="http://www.w3.org/2000/svg" xmlns:rdf="http://www.w3.org/1999/02/22-rdf-syntax-ns#" xmlns:cc="http://creativecommons.org/ns#" xmlns:dc="http://purl.org/dc/elements/1.1/"
	 xmlns="http://www.w3.org/2000/svg" xmlns:xlink="http://www.w3.org/1999/xlink" x="0px" y="0px" width="595.275px"
	 height="841.89px" viewBox="0 0 595.275 841.89" enable-background="new 0 0 595.275 841.89" xml:space="preserve">
<g id="layer1">
	<g>
		<rect id="rect3370" x="83.309" y="186.831" fill="#EC00FF" width="3.605" height="36.889"/>
		<rect id="rect3370-1" x="103.683" y="191.74" fill="#EC00FF" width="3.606" height="28.179"/>
		<polygon id="rect3370-7" fill="#EC00FF" points="83.42,223.758 83.397,220.001 93.766,219.886 93.789,223.642 		"/>
		<polygon id="rect3370-7-5" fill="#EC00FF" points="105.501,219.955 105.481,216.198 114.5,216.083 114.52,219.841 		"/>
	</g>
	<rect id="rect3370_1_" x="156.791" y="188.557" fill="#EC00FF" width="3.605" height="36.888"/>
	<rect id="rect3370-1_1_" x="177.165" y="191.949" fill="#EC00FF" width="3.606" height="32.679"/>
	<polygon id="rect3370-7_1_" fill="#EC00FF" points="156.891,225.482 156.87,221.726 167.238,221.617 167.259,225.374 	"/>
	<polygon id="rect3370-7-5_1_" fill="#EC00FF" points="178.974,224.665 178.957,220.908 187.975,220.799 187.993,224.557 	"/>
	<path id="path3336" fill="#0066FF" d="M64.009,192.791l31.349-60.127l32.643,59.328L64.009,192.791z"/>
	<path id="path3338" fill="#62DB35" d="M95.755,142.561l24.372,45.326l-48.686,0.031L95.755,142.561z"/>
	<path id="path3336-9" fill="#F4D62A" d="M80.642,183.229l14.787-29.888l15.399,29.492L80.642,183.229z"/>
	<path id="path3338-6" fill="#EC00FF" d="M95.992,161.389l7.677,17.671l-15.331,0.01L95.992,161.389z"/>
	<g>
		<rect id="rect3370_2_" x="237.64" y="182.233" fill="#EC00FF" width="3.605" height="36.889"/>
		<rect id="rect3370-1_2_" x="258.016" y="187.892" fill="#EC00FF" width="3.606" height="33.929"/>
		<polygon id="rect3370-7_2_" fill="#EC00FF" points="237.751,219.16 237.728,215.403 248.096,215.288 248.119,219.044 		"/>
		<polygon id="rect3370-7-5_2_" fill="#EC00FF" points="259.836,221.857 259.816,218.1 268.835,217.986 268.855,221.743 		"/>
	</g>
	<path id="path3336_1_" fill="#F4D62A" d="M218.343,192.693l31.349-60.127l32.643,59.328L218.343,192.693z"/>
	<path id="path3338_1_" fill="#EC00FF" d="M250.088,142.463l24.372,45.326l-48.686,0.031L250.088,142.463z"/>
	<path id="path3336-9_1_" fill="#0066FF" d="M234.976,183.131l14.787-29.888l15.399,29.492L234.976,183.131z"/>
	<path id="path3338-6_1_" fill="#62DB35" d="M250.325,161.291l7.677,17.671l-15.331,0.01L250.325,161.291z"/>
	<path id="path3336-7" fill="#62DB35" d="M136.486,195.703l31.386-60.106l32.605,59.348L136.486,195.703z"/>
	<path id="path3338-3" fill="#F4D62A" d="M168.263,145.493l24.343,45.342h-48.687L168.263,145.493z"/>
	<path id="path3336-9-7" fill="#EC00FF" d="M153.125,186.152l14.806-29.879l15.381,29.502L153.125,186.152z"/>
	<path id="path3338-6-1" fill="#0066FF" d="M168.488,164.322l7.666,17.676h-15.332L168.488,164.322z"/>
	<rect id="rect3370_3_" x="310.058" y="186.492" fill="#EC00FF" width="3.605" height="36.888"/>
	<rect id="rect3370-1_3_" x="330.435" y="194.371" fill="#EC00FF" width="3.605" height="28.179"/>
	<polygon id="rect3370-7_3_" fill="#EC00FF" points="310.169,223.418 310.146,219.662 320.515,219.546 320.537,223.303 	"/>
	<polygon id="rect3370-7-5_3_" fill="#EC00FF" points="332.252,222.586 332.231,218.83 341.251,218.715 341.271,222.473 	"/>
	<path id="path3336-7_1_" fill="#EC00FF" d="M289.747,195.651l31.348-60.126l32.644,59.328L289.747,195.651z"/>
	<path id="path3338-3_1_" fill="#0066FF" d="M321.492,145.422l24.372,45.327l-48.687,0.031L321.492,145.422z"/>
	<path id="path3336-9-7_1_" fill="#62DB35" d="M306.379,186.091l14.788-29.889l15.399,29.493L306.379,186.091z"/>
	<path id="path3338-6-1_1_" fill="#F4D62A" d="M321.729,164.25l7.676,17.671l-15.331,0.01L321.729,164.25z"/>
</g>
</svg>
