<?xml version="1.0" encoding="utf-8"?>
<!-- Generator: Adobe Illustrator 15.0.0, SVG Export Plug-In . SVG Version: 6.00 Build 0)  -->
<!DOCTYPE svg PUBLIC "-//W3C//DTD SVG 1.1//EN" "http://www.w3.org/Graphics/SVG/1.1/DTD/svg11.dtd">
<svg version="1.1"
	 id="svg2" xmlns:svg="http://www.w3.org/2000/svg" xmlns:rdf="http://www.w3.org/1999/02/22-rdf-syntax-ns#" xmlns:cc="http://creativecommons.org/ns#" xmlns:dc="http://purl.org/dc/elements/1.1/"
	 xmlns="http://www.w3.org/2000/svg" xmlns:xlink="http://www.w3.org/1999/xlink" x="0px" y="0px" width="595.275px"
	 height="841.89px" viewBox="0 0 595.275 841.89" enable-background="new 0 0 595.275 841.89" xml:space="preserve">
<g id="layer1">
	<g>
		<rect id="rect3370" x="83.292" y="186.752" fill="#EC00FF" width="3.605" height="36.889"/>
		<rect id="rect3370-1" x="103.665" y="191.674" fill="#EC00FF" width="3.606" height="28.179"/>
		<polygon id="rect3370-7" fill="#EC00FF" points="83.392,223.678 83.371,219.921 93.739,219.813 93.76,223.569 		"/>
		<polygon id="rect3370-7-5" fill="#EC00FF" points="105.475,219.89 105.457,216.132 114.476,216.024 114.494,219.781 		"/>
	</g>
	<rect id="rect3370_1_" x="156.791" y="188.557" fill="#EC00FF" width="3.605" height="36.888"/>
	<rect id="rect3370-1_1_" x="177.165" y="191.949" fill="#EC00FF" width="3.606" height="32.679"/>
	<polygon id="rect3370-7_1_" fill="#EC00FF" points="156.891,225.482 156.87,221.726 167.238,221.617 167.259,225.374 	"/>
	<polygon id="rect3370-7-5_1_" fill="#EC00FF" points="178.974,224.665 178.957,220.908 187.975,220.799 187.993,224.557 	"/>
	<path id="path3336" fill="#0066FF" d="M64,192.699l31.387-60.107l32.605,59.348L64,192.699z"/>
	<path id="path3338" fill="#62DB35" d="M95.777,142.489l24.343,45.342H71.434L95.777,142.489z"/>
	<path id="path3336-9" fill="#F4D62A" d="M80.639,183.148l14.806-29.879l15.381,29.502L80.639,183.148z"/>
	<path id="path3338-6" fill="#EC00FF" d="M96.002,161.317l7.666,17.676H88.337L96.002,161.317z"/>
	<g>
		<rect id="rect3370_2_" x="237.625" y="182.252" fill="#EC00FF" width="3.605" height="36.889"/>
		<rect id="rect3370-1_2_" x="257.999" y="187.924" fill="#EC00FF" width="3.606" height="33.929"/>
		<polygon id="rect3370-7_2_" fill="#EC00FF" points="237.725,219.178 237.705,215.421 248.073,215.313 248.093,219.069 		"/>
		<polygon id="rect3370-7-5_2_" fill="#EC00FF" points="259.809,221.89 259.791,218.132 268.81,218.024 268.827,221.781 		"/>
	</g>
	<path id="path3336_1_" fill="#F4D62A" d="M218.333,192.699l31.387-60.107l32.605,59.348L218.333,192.699z"/>
	<path id="path3338_1_" fill="#EC00FF" d="M250.111,142.489l24.343,45.342h-48.686L250.111,142.489z"/>
	<path id="path3336-9_1_" fill="#0066FF" d="M234.972,183.148l14.806-29.879l15.381,29.502L234.972,183.148z"/>
	<path id="path3338-6_1_" fill="#62DB35" d="M250.336,161.317l7.666,17.676H242.67L250.336,161.317z"/>
	<path id="path3336-7" fill="#62DB35" d="M136.486,195.703l31.386-60.106l32.605,59.348L136.486,195.703z"/>
	<path id="path3338-3" fill="#F4D62A" d="M168.263,145.493l24.343,45.342h-48.687L168.263,145.493z"/>
	<path id="path3336-9-7" fill="#EC00FF" d="M153.125,186.152l14.806-29.879l15.381,29.502L153.125,186.152z"/>
	<path id="path3338-6-1" fill="#0066FF" d="M168.488,164.322l7.666,17.676h-15.332L168.488,164.322z"/>
	<rect id="rect3370_3_" x="310.041" y="186.557" fill="#EC00FF" width="3.605" height="36.888"/>
	<rect id="rect3370-1_3_" x="330.415" y="194.449" fill="#EC00FF" width="3.605" height="28.179"/>
	<polygon id="rect3370-7_3_" fill="#EC00FF" points="310.141,223.482 310.12,219.726 320.488,219.617 320.509,223.374 	"/>
	<polygon id="rect3370-7-5_3_" fill="#EC00FF" points="332.224,222.665 332.206,218.908 341.226,218.799 341.243,222.557 	"/>
	<path id="path3336-7_1_" fill="#EC00FF" d="M289.736,195.703l31.386-60.106l32.605,59.348L289.736,195.703z"/>
	<path id="path3338-3_1_" fill="#0066FF" d="M321.513,145.493l24.344,45.342h-48.687L321.513,145.493z"/>
	<path id="path3336-9-7_1_" fill="#62DB35" d="M306.374,186.152l14.807-29.879l15.381,29.502L306.374,186.152z"/>
	<path id="path3338-6-1_1_" fill="#F4D62A" d="M321.738,164.322l7.665,17.676h-15.331L321.738,164.322z"/>
</g>
</svg>
